<svg height="44" width="115" xmlns="http://www.w3.org/2000/svg">
  <path d="M14.81 39.32A7.66 7.66 0 0 1 4.68 35.9a7.4 7.4 0 0 1-.8-3.6c0-.14-.05-.28-.1-.42l-1.84-3.64c-.19-.34-.66-.34-.8.04-1.28 3.22-1.1 7 .94 10.22a11.06 11.06 0 0 0 13.35 4.45 11.17 11.17 0 0 0 6.06-15.52L13.44 11.6c-.1-.24-.38-.28-.57-.19l-2.36 1.23c-.24.1-.29.38-.2.57l2.85 5.58c.1.24 0 .47-.2.57l-4.2 2.18c-.24.1-.48.04-.57-.2L5.06 15.2A7.77 7.77 0 0 1 8.47 4.73a7.66 7.66 0 0 1 10.13 3.4c.57 1.14.85 2.37.8 3.56 0 .19.05.38.1.52l1.84 3.6c.2.32.67.32.8-.06 1.29-3.21 1.1-7-.94-10.22A11.06 11.06 0 0 0 7.86 1.1 11.17 11.17 0 0 0 1.8 16.6l8.04 15.85c.1.23.38.28.57.19l2.37-1.23c.23-.1.28-.38.19-.57l-2.84-5.58c-.1-.24 0-.48.19-.57l4.2-2.18c.24-.1.48-.05.58.19l3.12 6.15a7.76 7.76 0 0 1-3.4 10.46z"/>
  <path d="M13.06 18.73c.1.24 0 .48-.19.57l-4.21 2.18c-.24.1-.47.05-.57-.19l1.99 3.98c-.1-.24 0-.48.19-.57l4.21-2.18c.24-.1.47-.05.57.19l-1.99-3.98zM39.94 7.1c0-2.23-1.04-3.55-3.22-3.55-2.17 0-3.4 1.42-3.4 3.22 0 5.34 8.7 2.4 8.7 8.7 0 3.46-2.17 5.25-5.44 5.25-3.36 0-5.2-1.8-5.2-5.34v-.52h1.6v.66c0 2.27 1.24 3.83 3.56 3.83 2.27 0 3.88-1.13 3.88-3.64 0-5.35-8.71-2.27-8.71-8.8 0-2.8 1.84-4.73 4.97-4.73 3.36 0 4.87 1.7 4.87 4.87h-1.6v.05zM55 19.63a4.79 4.79 0 0 1-3.26 1.1c-3.65 0-5.73-2.85-5.73-9.28s2.08-9.27 5.73-9.27c3.69 0 5.72 2.84 5.72 9.27 0 3.36-.56 5.77-1.6 7.2l1.84 1.74-.9.95-1.8-1.7zm-3.03-3.02.9-.95 1.94 1.9c.71-1.28 1.1-3.27 1.1-6.06 0-5.82-1.57-7.9-4.13-7.9-2.55 0-4.11 2.13-4.11 7.9 0 5.77 1.56 7.9 4.11 7.9.9 0 1.61-.24 2.27-.8l-2.08-2zm9.9-14.1h1.6v12.87c0 2.7 1.14 3.97 3.5 3.97 2.37 0 3.5-1.32 3.5-3.97V2.5h1.62v12.91c0 3.79-1.85 5.35-5.12 5.35-3.3 0-5.1-1.56-5.1-5.35V2.51zm18.69 0h1.98l5.3 17.93h-1.7l-1.47-5.2h-6.29l-1.47 5.2h-1.65l5.3-17.93zm3.78 11.35L81.6 3.8h-.05L78.8 13.86h5.53zm6.91-11.35h5.35c2.98 0 4.64 1.7 4.64 4.5 0 2.17-.85 4.1-3.22 4.53v.05c2.22.2 2.98 1.47 3.08 4.26l.04 1.94c.05 1 .15 1.94.76 2.65H100a5.06 5.06 0 0 1-.47-2.5l-.04-1.52c-.1-3.17-.67-4.17-3.55-4.17H92.9v8.19h-1.61V2.5h-.05zm1.61 8.37h2.75c2.55 0 4.02-1.13 4.02-3.5 0-2.18-.95-3.5-3.83-3.5h-2.94v7zm12.97-8.37h8.9v1.37h-7.3v6.53h6.82v1.37h-6.81v7.33h7.52v1.38h-9.13V2.5zM38.8 24.84h5.02v17.93h-5.01v-7.24h-2.42v7.24h-5.01V24.84h5.01v6.48h2.42zm15-.38c6.45 0 6.45 3.79 6.45 9.32 0 5.72 0 9.32-6.44 9.32s-6.44-3.6-6.44-9.32c0-5.54 0-9.32 6.44-9.32zm0 3.31c-1.08 0-1.27.76-1.27 6.01s.2 6 1.28 6 1.28-.75 1.28-6-.2-6-1.28-6zm10-2.93h7.28l1.47 10.97h.05l1.6-10.97h7.15v17.93h-4.73V29.7h-.05l-2.22 13.06h-3.6L68.53 29.7h-.05v13.06h-4.73V24.84zm21.53 0h10.79v4.07h-5.78v2.74h5.4v3.93h-5.4v3.12h6.01v4.07H85.33z"/>
</svg>