<svg height="23" width="190" xmlns="http://www.w3.org/2000/svg">
  <g fill="#231916" fill-rule="evenodd">
    <path d="M7.63 20.5a4.01 4.01 0 0 1-5.32-1.8 3.98 3.98 0 0 1-.43-1.88.47.47 0 0 0-.05-.23l-.98-1.92c-.1-.17-.35-.16-.42.02a5.87 5.87 0 0 0 .5 5.37 5.83 5.83 0 0 0 7.01 2.34 5.88 5.88 0 0 0 3.18-8.18L6.9 5.88a.23.23 0 0 0-.32-.1l-1.25.64a.23.23 0 0 0-.1.31L6.7 9.68a.23.23 0 0 1-.1.31l-2.2 1.13a.23.23 0 0 1-.31-.1L2.43 7.78a4.07 4.07 0 0 1 1.79-5.5 4.01 4.01 0 0 1 5.32 1.8 4 4 0 0 1 .43 1.86.59.59 0 0 0 .06.27l.97 1.9a.23.23 0 0 0 .42-.02 5.87 5.87 0 0 0-.5-5.37A5.83 5.83 0 0 0 3.91.38 5.88 5.88 0 0 0 .73 8.56l4.22 8.34a.23.23 0 0 0 .31.1l1.26-.64a.23.23 0 0 0 .1-.31L5.13 13.1a.23.23 0 0 1 .1-.3l2.23-1.14a.23.23 0 0 1 .3.1L9.43 15c1.02 2 .23 4.52-1.8 5.5"/>
    <path d="M6.71 9.68a.23.23 0 0 1-.1.3L4.4 11.13a.23.23 0 0 1-.31-.1l1.05 2.08a.23.23 0 0 1 .1-.3l2.23-1.14a.23.23 0 0 1 .31.1L6.72 9.68zm23.74-2.36c0-2.4-1.13-3.85-3.54-3.85-2.42 0-3.75 1.55-3.75 3.5 0 5.8 9.6 2.61 9.6 9.45 0 3.77-2.4 5.7-6 5.7-3.7 0-5.76-1.96-5.76-5.78v-.57h1.77v.74c0 2.48 1.34 4.14 3.94 4.14 2.5 0 4.27-1.23 4.27-3.95 0-5.78-9.59-2.48-9.59-9.55C21.39 4.1 23.41 2 26.85 2c3.69 0 5.38 1.85 5.38 5.32h-1.78zm14.12 10.33.97-1.03 2.13 2.04c.78-1.39 1.2-3.54 1.2-6.6 0-6.3-1.73-8.59-4.55-8.59-2.83 0-4.55 2.3-4.55 8.6s1.72 8.58 4.55 8.58a3.6 3.6 0 0 0 2.5-.87l-2.25-2.13zm3.32 3.28a5.34 5.34 0 0 1-3.57 1.2c-4.05 0-6.32-3.09-6.32-10.07S40.27 2 44.32 2c4.04 0 6.32 3.08 6.32 10.06 0 3.66-.64 6.25-1.8 7.83l2.02 1.9-.97 1.04-2-1.9zM55 2h1.77v14c0 2.91 1.28 4.33 3.88 4.33 2.6 0 3.89-1.42 3.89-4.34V2h1.77v14.02c0 4.09-2.02 5.78-5.66 5.78-3.63 0-5.65-1.69-5.65-5.78V2zm25.03 12.33L76.98 3.36h-.05l-3.05 10.97h6.15zM75.85 2h2.22l5.84 19.47h-1.88l-1.6-5.67h-6.94l-1.6 5.67H70L75.85 2zm13.93 9.11h3.04c2.8 0 4.44-1.25 4.44-3.82 0-2.37-1.03-3.82-4.24-3.82h-3.24v7.64zM88 2h5.9c3.3 0 5.13 1.86 5.13 4.88 0 2.35-.94 4.45-3.57 4.94v.05c2.46.22 3.3 1.61 3.38 4.61l.05 2.13c.03 1.07.14 2.1.83 2.86h-2.08a5.75 5.75 0 0 1-.52-2.72l-.06-1.64c-.1-3.44-.74-4.53-3.93-4.53h-3.35v8.9H88V2zm16 0h9.81v1.47h-8.04v7.1h7.51v1.47h-7.5V20h8.28v1.47H104zm22.2 0h5.55v19.47h-5.55v-7.85h-2.66v7.85H118V2h5.54v7.04h2.66zm15.92 3.6c-1.19 0-1.41.82-1.41 6.52 0 5.7.22 6.52 1.41 6.52 1.2 0 1.42-.82 1.42-6.52 0-5.7-.22-6.52-1.42-6.52m0-3.6c7.13 0 7.13 4.1 7.13 10.12 0 6.22 0 10.12-7.13 10.12-7.12 0-7.12-3.9-7.12-10.12C135 6.09 135 2 142.12 2M153 2h8.04l1.63 11.92h.06L164.53 2h7.87v19.47h-5.2V7.3h-.06l-2.44 14.18h-4L158.27 7.3h-.06v14.18H153zm24 0h11.92v4.42h-6.38v3h5.96v4.25h-5.96v3.39h6.63v4.41H177z"/>
  </g>
</svg>