<svg height="15" width="26" xmlns="http://www.w3.org/2000/svg">
  <path d="M20.32 13.28a3.98 3.98 0 0 1-3.97-3.97 3.99 3.99 0 0 1 3.97-3.98 4 4 0 0 1 3.97 3.98 3.98 3.98 0 0 1-3.97 3.97m-4.88-6.86c-.1-.85-.22-1.69-.3-2.54v-.03c0-.73.31-1.4.8-1.9a2.63 2.63 0 0 1 1.88-.77c.39 0 .77.07 1.09.23l.04.02c.35.16.66.39.9.67l.04.04 1.43 1.56a6.2 6.2 0 0 0-1-.08 5.7 5.7 0 0 0-4.88 2.8m-2.42-.21c-.42 0-.8.08-1.16.23l.21-2.6v-.05c0-.27.1-.5.28-.67a.96.96 0 0 1 .67-.28c.26 0 .49.11.66.28a.92.92 0 0 1 .29.65v.18c.05.82.15 1.67.2 2.5a2.9 2.9 0 0 0-1.15-.24m.7 3.66-.01.03a1.09 1.09 0 0 1-.7.27.97.97 0 0 1-.7-.3.98.98 0 0 1-.3-.7c0-.27.13-.53.3-.7a.97.97 0 0 1 .7-.3c.29 0 .53.11.71.3a.93.93 0 0 1 .3.7.93.93 0 0 1-.3.7m-2.87-5.82-.28 2.37a5.68 5.68 0 0 0-4.89-2.8c-.33 0-.67.03-.99.08l1.43-1.56.04-.04c.24-.28.55-.51.9-.67l.03-.02c.34-.16.7-.23 1.1-.23.74 0 1.4.29 1.88.77.49.5.79 1.17.79 1.9v.2m-5.18 9.23a3.98 3.98 0 0 1-3.96-3.97 3.99 3.99 0 0 1 3.96-3.98c2.2 0 3.97 1.8 3.97 3.98a3.97 3.97 0 0 1-3.97 3.97m20.07-5.65h-.01l-.15-.45a5.5 5.5 0 0 0-1.17-1.8l-3.66-4.02-.03-.03a3.68 3.68 0 0 0-1.29-.97l-.05-.02A3.74 3.74 0 0 0 17.82 0a3.84 3.84 0 0 0-3.46 2.15 2.12 2.12 0 0 0-1.34-.49 2.1 2.1 0 0 0-1.38.5 3.9 3.9 0 0 0-.74-1.03A3.82 3.82 0 0 0 8.2 0c-.56 0-1.1.12-1.58.34l-.04.02c-.5.22-.93.56-1.3.97l-.02.03-3.67 4.01A5.66 5.66 0 0 0 .42 7.18c-.1.28-.2.55-.27.84a5.66 5.66 0 0 0 1.51 5.3 5.67 5.67 0 0 0 9.33-2 2.96 2.96 0 0 0 4.02.03 5.7 5.7 0 0 0 1.5 2.17A5.68 5.68 0 0 0 20.3 15a5.67 5.67 0 0 0 4.02-1.67A5.73 5.73 0 0 0 26 9.74a6.37 6.37 0 0 0-.24-2.11" fill="#231815" fill-rule="evenodd"/>
</svg>