<svg height="35" width="35" xmlns="http://www.w3.org/2000/svg">
  <g fill="none" fill-rule="evenodd" transform="translate(1 1)">
    <circle cx="16.5" cy="16.5" r="16.5" stroke="#D01802"/>
    <path d="M15.85 13.8a3.65 3.65 0 0 0-4.7-.06 3.65 3.65 0 0 0-1.02 4.23 3.63 3.63 0 0 0 3.71 2.18 3.61 3.61 0 0 0 3.19-3H13.6c-.14 0-.14 0-.14-.14v-1.57c0-.12 0-.12.11-.12h5.11c.09 0 .12.02.13.1.11.54.15 1.07.1 1.62a5.34 5.34 0 0 1-1.37 3.13 5.33 5.33 0 0 1-3.06 1.73 5.45 5.45 0 0 1-6.3-4 5.46 5.46 0 0 1 3.25-6.43 5.33 5.33 0 0 1 2.34-.39 5.38 5.38 0 0 1 3.36 1.41l.02.03-1.3 1.28M25 16.13h-1.86v1.86h-.1l-1.07.01c-.08 0-.1-.03-.1-.1v-1.77h-1.86v-1.16c-.01-.09.02-.1.1-.1h1.76v-1.75c0-.09.02-.12.12-.12h1.03c.1 0 .12.02.12.11v1.76H25v1.26z" fill="#000"/>
  </g>
</svg>