<svg width="60" height="60" xmlns="http://www.w3.org/2000/svg"><g fill="none" fill-rule="evenodd"><path d="M59.5 29.75c0 16.43-13.32 29.75-29.75 29.75S0 46.18 0 29.75 13.32 0 29.75 0 59.5 13.32 59.5 29.75" fill="#C6161E"/><path fill="#FFF" d="M27.057 21.186l.035.084h.024l.036-.084.636-2.771h1.25l-1.296 4.977v3.692h-1.275v-3.692l-1.297-4.977h1.25zM30.95 22.236c.013-.248-.034-.425-.152-.566a.369.369 0 0 0-.26-.095c-.224 0-.318.154-.365.33-.035.095-.047.201-.035.331v3.244c-.012.247.046.424.153.554a.335.335 0 0 0 .247.094c.225 0 .33-.142.378-.318a.736.736 0 0 0 .035-.33v-3.244zm1.122 3.28c-.036.624-.225 1.06-.638 1.403-.212.176-.506.26-.896.26-.767 0-1.144-.425-1.332-.85a2.353 2.353 0 0 1-.19-.849v-3.244c.037-.625.225-1.085.638-1.439.2-.177.495-.26.884-.26.767 0 1.156.425 1.345.838a2.3 2.3 0 0 1 .189.825v3.315zM34.75 20.632h1.19v6.452h-1.19v-.543c-.023.012-.07.06-.13.118a2.444 2.444 0 0 1-.518.425.672.672 0 0 1-.32.094c-.317 0-.542-.189-.683-.437a1.678 1.678 0 0 1-.212-.825v-5.284h1.19v5.107c0 .247.142.283.284.283.13 0 .2-.07.284-.153a.854.854 0 0 0 .104-.154v-5.083zM38.438 41.618H23.063a3.254 3.254 0 0 1-3.244-3.244v-6.036a3.254 3.254 0 0 1 3.244-3.244h15.375a3.254 3.254 0 0 1 3.244 3.244v6.036a3.254 3.254 0 0 1-3.244 3.244"/><path fill="#C6161E" d="M23.045 32.286v-1.309h3.681v1.31h-1.203v7.36h-1.275v-7.36zM29.062 33.194h1.191v6.452h-1.191v-.543c-.023.012-.07.06-.13.118a2.384 2.384 0 0 1-.518.425.663.663 0 0 1-.319.095c-.318 0-.543-.19-.684-.437a1.682 1.682 0 0 1-.212-.826v-5.284h1.191v5.107c0 .248.142.284.283.284.13 0 .201-.072.284-.154.035-.035.07-.094.105-.153v-5.084zM32.39 38.231c0 .224.177.39.354.39s.318-.166.318-.39v-3.62c0-.226-.14-.39-.318-.39-.177 0-.354.2-.354.39v3.62zm-1.19-7.254h1.19v2.642c.2-.189.378-.33.613-.437a.7.7 0 0 1 .33-.082c.33 0 .555.19.708.424.142.248.212.566.212.838v4.116c0 .272-.07.59-.212.826-.153.247-.378.437-.708.437-.223 0-.46-.13-.636-.26a5.504 5.504 0 0 1-.307-.26v.425H31.2v-8.669zM36.166 35.707h.86v-.908c0-.248-.048-.425-.166-.567a.367.367 0 0 0-.258-.093c-.224 0-.319.153-.377.33-.037.093-.047.2-.06.33v.908zm1.97 1.628v.743c-.036.625-.226 1.062-.65 1.403-.212.177-.508.26-.895.26-.767 0-1.157-.425-1.346-.849a2.358 2.358 0 0 1-.188-.85v-3.243c.035-.625.235-1.085.66-1.44.2-.176.495-.258.886-.258.765 0 1.154.423 1.343.836.107.249.178.52.19.827v1.875h-1.97v1.403c.012.248.082.425.188.555a.343.343 0 0 0 .248.094c.224 0 .33-.141.377-.318a.921.921 0 0 0 .047-.331v-.707h1.11z"/></g></svg>